<mxfile host="app.diagrams.net" modified="2023-04-13T11:41:01.287Z" agent="Mozilla/5.0 (Windows NT 10.0; Win64; x64) AppleWebKit/537.36 (KHTML, like Gecko) Chrome/111.0.0.0 Safari/537.36" etag="yMl1k1DgjRWMdg43j-Ry" version="21.1.6" type="github">
  <diagram name="Page-1" id="2YBvvXClWsGukQMizWep">
    <mxGraphModel dx="1434" dy="764" grid="1" gridSize="10" guides="1" tooltips="1" connect="1" arrows="1" fold="1" page="1" pageScale="1" pageWidth="850" pageHeight="1100" math="0" shadow="0">
      <root>
        <mxCell id="0" />
        <mxCell id="1" parent="0" />
        <mxCell id="l9k2WkmSfrs8s9Qc9CKJ-1" value="activity-biz" style="shape=umlLifeline;perimeter=lifelinePerimeter;whiteSpace=wrap;html=1;container=0;dropTarget=0;collapsible=0;recursiveResize=0;outlineConnect=0;portConstraint=eastwest;newEdgeStyle={&quot;edgeStyle&quot;:&quot;elbowEdgeStyle&quot;,&quot;elbow&quot;:&quot;vertical&quot;,&quot;curved&quot;:0,&quot;rounded&quot;:0};" parent="1" vertex="1">
          <mxGeometry x="210" y="20" width="100" height="450" as="geometry" />
        </mxCell>
        <mxCell id="l9k2WkmSfrs8s9Qc9CKJ-2" value="" style="html=1;points=[];perimeter=orthogonalPerimeter;outlineConnect=0;targetShapes=umlLifeline;portConstraint=eastwest;newEdgeStyle={&quot;edgeStyle&quot;:&quot;elbowEdgeStyle&quot;,&quot;elbow&quot;:&quot;vertical&quot;,&quot;curved&quot;:0,&quot;rounded&quot;:0};" parent="l9k2WkmSfrs8s9Qc9CKJ-1" vertex="1">
          <mxGeometry x="45" y="70" width="10" height="360" as="geometry" />
        </mxCell>
        <mxCell id="l9k2WkmSfrs8s9Qc9CKJ-3" value="发布/修改" style="html=1;verticalAlign=bottom;startArrow=oval;endArrow=block;startSize=8;edgeStyle=elbowEdgeStyle;elbow=vertical;curved=0;rounded=0;" parent="l9k2WkmSfrs8s9Qc9CKJ-1" target="l9k2WkmSfrs8s9Qc9CKJ-2" edge="1">
          <mxGeometry relative="1" as="geometry">
            <mxPoint x="-130" y="70" as="sourcePoint" />
            <mxPoint as="offset" />
          </mxGeometry>
        </mxCell>
        <mxCell id="l9k2WkmSfrs8s9Qc9CKJ-4" value="" style="html=1;points=[];perimeter=orthogonalPerimeter;outlineConnect=0;targetShapes=umlLifeline;portConstraint=eastwest;newEdgeStyle={&quot;edgeStyle&quot;:&quot;elbowEdgeStyle&quot;,&quot;elbow&quot;:&quot;vertical&quot;,&quot;curved&quot;:0,&quot;rounded&quot;:0};" parent="l9k2WkmSfrs8s9Qc9CKJ-1" vertex="1">
          <mxGeometry x="55" y="80" width="10" height="40" as="geometry" />
        </mxCell>
        <mxCell id="l9k2WkmSfrs8s9Qc9CKJ-5" value="保存活动数据" style="html=1;align=left;spacingLeft=2;endArrow=block;rounded=0;edgeStyle=orthogonalEdgeStyle;curved=0;rounded=0;" parent="l9k2WkmSfrs8s9Qc9CKJ-1" target="l9k2WkmSfrs8s9Qc9CKJ-4" edge="1">
          <mxGeometry relative="1" as="geometry">
            <mxPoint x="60" y="70" as="sourcePoint" />
            <Array as="points">
              <mxPoint x="90" y="100" />
            </Array>
          </mxGeometry>
        </mxCell>
        <mxCell id="l9k2WkmSfrs8s9Qc9CKJ-7" value="活动快照存储服务" style="shape=umlLifeline;perimeter=lifelinePerimeter;whiteSpace=wrap;html=1;container=0;dropTarget=0;collapsible=0;recursiveResize=0;outlineConnect=0;portConstraint=eastwest;newEdgeStyle={&quot;edgeStyle&quot;:&quot;elbowEdgeStyle&quot;,&quot;elbow&quot;:&quot;vertical&quot;,&quot;curved&quot;:0,&quot;rounded&quot;:0};" parent="1" vertex="1">
          <mxGeometry x="560" y="20" width="100" height="460" as="geometry" />
        </mxCell>
        <mxCell id="l9k2WkmSfrs8s9Qc9CKJ-8" value="" style="html=1;points=[];perimeter=orthogonalPerimeter;outlineConnect=0;targetShapes=umlLifeline;portConstraint=eastwest;newEdgeStyle={&quot;edgeStyle&quot;:&quot;elbowEdgeStyle&quot;,&quot;elbow&quot;:&quot;vertical&quot;,&quot;curved&quot;:0,&quot;rounded&quot;:0};" parent="l9k2WkmSfrs8s9Qc9CKJ-7" vertex="1">
          <mxGeometry x="45" y="65" width="10" height="375" as="geometry" />
        </mxCell>
        <mxCell id="l9k2WkmSfrs8s9Qc9CKJ-20" value="" style="html=1;points=[];perimeter=orthogonalPerimeter;outlineConnect=0;targetShapes=umlLifeline;portConstraint=eastwest;newEdgeStyle={&quot;edgeStyle&quot;:&quot;elbowEdgeStyle&quot;,&quot;elbow&quot;:&quot;vertical&quot;,&quot;curved&quot;:0,&quot;rounded&quot;:0};" parent="l9k2WkmSfrs8s9Qc9CKJ-7" vertex="1">
          <mxGeometry x="35" y="190" width="10" height="180" as="geometry" />
        </mxCell>
        <mxCell id="j2GQXVyDe1wogXifcndS-27" value="" style="html=1;points=[];perimeter=orthogonalPerimeter;outlineConnect=0;targetShapes=umlLifeline;portConstraint=eastwest;newEdgeStyle={&quot;edgeStyle&quot;:&quot;elbowEdgeStyle&quot;,&quot;elbow&quot;:&quot;vertical&quot;,&quot;curved&quot;:0,&quot;rounded&quot;:0};" vertex="1" parent="l9k2WkmSfrs8s9Qc9CKJ-7">
          <mxGeometry x="50" y="330" width="10" height="40" as="geometry" />
        </mxCell>
        <mxCell id="j2GQXVyDe1wogXifcndS-28" value="写opt_log，关联compare_log_id" style="html=1;align=left;spacingLeft=2;endArrow=block;rounded=0;edgeStyle=orthogonalEdgeStyle;curved=0;rounded=0;" edge="1" target="j2GQXVyDe1wogXifcndS-27" parent="l9k2WkmSfrs8s9Qc9CKJ-7">
          <mxGeometry relative="1" as="geometry">
            <mxPoint x="55" y="310" as="sourcePoint" />
            <Array as="points">
              <mxPoint x="85" y="340" />
            </Array>
          </mxGeometry>
        </mxCell>
        <mxCell id="j2GQXVyDe1wogXifcndS-31" value="" style="html=1;points=[];perimeter=orthogonalPerimeter;outlineConnect=0;targetShapes=umlLifeline;portConstraint=eastwest;newEdgeStyle={&quot;edgeStyle&quot;:&quot;elbowEdgeStyle&quot;,&quot;elbow&quot;:&quot;vertical&quot;,&quot;curved&quot;:0,&quot;rounded&quot;:0};" vertex="1" parent="l9k2WkmSfrs8s9Qc9CKJ-7">
          <mxGeometry x="50" y="230" width="10" height="40" as="geometry" />
        </mxCell>
        <mxCell id="j2GQXVyDe1wogXifcndS-32" value="写compare_log，返回log_id" style="html=1;align=left;spacingLeft=2;endArrow=block;rounded=0;edgeStyle=orthogonalEdgeStyle;curved=0;rounded=0;" edge="1" target="j2GQXVyDe1wogXifcndS-31" parent="l9k2WkmSfrs8s9Qc9CKJ-7">
          <mxGeometry relative="1" as="geometry">
            <mxPoint x="55" y="210" as="sourcePoint" />
            <Array as="points">
              <mxPoint x="85" y="240" />
            </Array>
          </mxGeometry>
        </mxCell>
        <mxCell id="l9k2WkmSfrs8s9Qc9CKJ-17" value="spi写入活动数据日志，opt_log" style="html=1;verticalAlign=bottom;endArrow=block;edgeStyle=elbowEdgeStyle;elbow=vertical;curved=0;rounded=0;" parent="1" source="j2GQXVyDe1wogXifcndS-19" target="l9k2WkmSfrs8s9Qc9CKJ-20" edge="1">
          <mxGeometry x="-0.0303" y="20" relative="1" as="geometry">
            <mxPoint x="420" y="230" as="sourcePoint" />
            <Array as="points">
              <mxPoint x="540" y="230" />
              <mxPoint x="390" y="230" />
            </Array>
            <mxPoint x="395" y="160" as="targetPoint" />
            <mxPoint as="offset" />
          </mxGeometry>
        </mxCell>
        <mxCell id="l9k2WkmSfrs8s9Qc9CKJ-35" value="部分修改" style="text;align=center;fontStyle=1;verticalAlign=middle;spacingLeft=3;spacingRight=3;strokeColor=none;rotatable=0;points=[[0,0.5],[1,0.5]];portConstraint=eastwest;" parent="1" vertex="1">
          <mxGeometry x="70" y="550" width="80" height="26" as="geometry" />
        </mxCell>
        <mxCell id="l9k2WkmSfrs8s9Qc9CKJ-36" value="完整修改" style="text;align=center;fontStyle=1;verticalAlign=middle;spacingLeft=3;spacingRight=3;strokeColor=none;rotatable=0;points=[[0,0.5],[1,0.5]];portConstraint=eastwest;" parent="1" vertex="1">
          <mxGeometry x="30" y="20" width="80" height="26" as="geometry" />
        </mxCell>
        <mxCell id="j2GQXVyDe1wogXifcndS-4" value="biz、accessory、mq" style="shape=umlLifeline;perimeter=lifelinePerimeter;whiteSpace=wrap;html=1;container=0;dropTarget=0;collapsible=0;recursiveResize=0;outlineConnect=0;portConstraint=eastwest;newEdgeStyle={&quot;edgeStyle&quot;:&quot;elbowEdgeStyle&quot;,&quot;elbow&quot;:&quot;vertical&quot;,&quot;curved&quot;:0,&quot;rounded&quot;:0};" vertex="1" parent="1">
          <mxGeometry x="200" y="600" width="100" height="300" as="geometry" />
        </mxCell>
        <mxCell id="j2GQXVyDe1wogXifcndS-5" value="" style="html=1;points=[];perimeter=orthogonalPerimeter;outlineConnect=0;targetShapes=umlLifeline;portConstraint=eastwest;newEdgeStyle={&quot;edgeStyle&quot;:&quot;elbowEdgeStyle&quot;,&quot;elbow&quot;:&quot;vertical&quot;,&quot;curved&quot;:0,&quot;rounded&quot;:0};" vertex="1" parent="j2GQXVyDe1wogXifcndS-4">
          <mxGeometry x="45" y="70" width="10" height="200" as="geometry" />
        </mxCell>
        <mxCell id="j2GQXVyDe1wogXifcndS-6" value="结束/删除/隐藏/暂停/透传等" style="html=1;verticalAlign=bottom;startArrow=oval;endArrow=block;startSize=8;edgeStyle=elbowEdgeStyle;elbow=vertical;curved=0;rounded=0;" edge="1" parent="j2GQXVyDe1wogXifcndS-4" target="j2GQXVyDe1wogXifcndS-5">
          <mxGeometry x="0.0118" relative="1" as="geometry">
            <mxPoint x="-130" y="70" as="sourcePoint" />
            <mxPoint as="offset" />
          </mxGeometry>
        </mxCell>
        <mxCell id="j2GQXVyDe1wogXifcndS-7" value="" style="html=1;points=[];perimeter=orthogonalPerimeter;outlineConnect=0;targetShapes=umlLifeline;portConstraint=eastwest;newEdgeStyle={&quot;edgeStyle&quot;:&quot;elbowEdgeStyle&quot;,&quot;elbow&quot;:&quot;vertical&quot;,&quot;curved&quot;:0,&quot;rounded&quot;:0};" vertex="1" parent="j2GQXVyDe1wogXifcndS-4">
          <mxGeometry x="55" y="80" width="10" height="40" as="geometry" />
        </mxCell>
        <mxCell id="j2GQXVyDe1wogXifcndS-8" value="更新业务字段" style="html=1;align=left;spacingLeft=2;endArrow=block;rounded=0;edgeStyle=orthogonalEdgeStyle;curved=0;rounded=0;" edge="1" parent="j2GQXVyDe1wogXifcndS-4" target="j2GQXVyDe1wogXifcndS-7">
          <mxGeometry relative="1" as="geometry">
            <mxPoint x="60" y="70" as="sourcePoint" />
            <Array as="points">
              <mxPoint x="90" y="100" />
            </Array>
          </mxGeometry>
        </mxCell>
        <mxCell id="j2GQXVyDe1wogXifcndS-9" value="活动快照存储服务" style="shape=umlLifeline;perimeter=lifelinePerimeter;whiteSpace=wrap;html=1;container=0;dropTarget=0;collapsible=0;recursiveResize=0;outlineConnect=0;portConstraint=eastwest;newEdgeStyle={&quot;edgeStyle&quot;:&quot;elbowEdgeStyle&quot;,&quot;elbow&quot;:&quot;vertical&quot;,&quot;curved&quot;:0,&quot;rounded&quot;:0};" vertex="1" parent="1">
          <mxGeometry x="400" y="600" width="100" height="300" as="geometry" />
        </mxCell>
        <mxCell id="j2GQXVyDe1wogXifcndS-10" value="" style="html=1;points=[];perimeter=orthogonalPerimeter;outlineConnect=0;targetShapes=umlLifeline;portConstraint=eastwest;newEdgeStyle={&quot;edgeStyle&quot;:&quot;elbowEdgeStyle&quot;,&quot;elbow&quot;:&quot;vertical&quot;,&quot;curved&quot;:0,&quot;rounded&quot;:0};" vertex="1" parent="j2GQXVyDe1wogXifcndS-9">
          <mxGeometry x="45" y="65" width="10" height="205" as="geometry" />
        </mxCell>
        <mxCell id="j2GQXVyDe1wogXifcndS-11" value="" style="html=1;points=[];perimeter=orthogonalPerimeter;outlineConnect=0;targetShapes=umlLifeline;portConstraint=eastwest;newEdgeStyle={&quot;edgeStyle&quot;:&quot;elbowEdgeStyle&quot;,&quot;elbow&quot;:&quot;vertical&quot;,&quot;curved&quot;:0,&quot;rounded&quot;:0};" vertex="1" parent="j2GQXVyDe1wogXifcndS-9">
          <mxGeometry x="35" y="120" width="10" height="80" as="geometry" />
        </mxCell>
        <mxCell id="j2GQXVyDe1wogXifcndS-12" value="spi同步写入增量字段数据" style="html=1;verticalAlign=bottom;endArrow=block;edgeStyle=elbowEdgeStyle;elbow=vertical;curved=0;rounded=0;" edge="1" parent="1" source="j2GQXVyDe1wogXifcndS-5" target="j2GQXVyDe1wogXifcndS-11">
          <mxGeometry relative="1" as="geometry">
            <mxPoint x="160" y="750" as="sourcePoint" />
            <Array as="points">
              <mxPoint x="370" y="750" />
            </Array>
            <mxPoint x="385" y="750" as="targetPoint" />
            <mxPoint as="offset" />
          </mxGeometry>
        </mxCell>
        <mxCell id="j2GQXVyDe1wogXifcndS-13" value="return" style="html=1;verticalAlign=bottom;endArrow=open;dashed=1;endSize=8;edgeStyle=elbowEdgeStyle;elbow=vertical;curved=0;rounded=0;" edge="1" parent="1" source="j2GQXVyDe1wogXifcndS-11" target="j2GQXVyDe1wogXifcndS-5">
          <mxGeometry x="0.4419" y="-70" relative="1" as="geometry">
            <mxPoint x="180" y="790" as="targetPoint" />
            <Array as="points">
              <mxPoint x="330" y="790" />
              <mxPoint x="360" y="860" />
            </Array>
            <mxPoint as="offset" />
            <mxPoint x="370" y="790" as="sourcePoint" />
          </mxGeometry>
        </mxCell>
        <mxCell id="j2GQXVyDe1wogXifcndS-14" value="return" style="edgeLabel;html=1;align=center;verticalAlign=middle;resizable=0;points=[];" vertex="1" connectable="0" parent="j2GQXVyDe1wogXifcndS-13">
          <mxGeometry x="-0.0311" y="-1" relative="1" as="geometry">
            <mxPoint as="offset" />
          </mxGeometry>
        </mxCell>
        <mxCell id="j2GQXVyDe1wogXifcndS-18" value="activity-follower-mq" style="shape=umlLifeline;perimeter=lifelinePerimeter;whiteSpace=wrap;html=1;container=0;dropTarget=0;collapsible=0;recursiveResize=0;outlineConnect=0;portConstraint=eastwest;newEdgeStyle={&quot;edgeStyle&quot;:&quot;elbowEdgeStyle&quot;,&quot;elbow&quot;:&quot;vertical&quot;,&quot;curved&quot;:0,&quot;rounded&quot;:0};" vertex="1" parent="1">
          <mxGeometry x="350" y="20" width="135" height="460" as="geometry" />
        </mxCell>
        <mxCell id="j2GQXVyDe1wogXifcndS-19" value="" style="html=1;points=[];perimeter=orthogonalPerimeter;outlineConnect=0;targetShapes=umlLifeline;portConstraint=eastwest;newEdgeStyle={&quot;edgeStyle&quot;:&quot;elbowEdgeStyle&quot;,&quot;elbow&quot;:&quot;vertical&quot;,&quot;curved&quot;:0,&quot;rounded&quot;:0};" vertex="1" parent="j2GQXVyDe1wogXifcndS-18">
          <mxGeometry x="62.5" y="67.5" width="10" height="372.5" as="geometry" />
        </mxCell>
        <mxCell id="j2GQXVyDe1wogXifcndS-21" value="" style="html=1;points=[];perimeter=orthogonalPerimeter;outlineConnect=0;targetShapes=umlLifeline;portConstraint=eastwest;newEdgeStyle={&quot;edgeStyle&quot;:&quot;elbowEdgeStyle&quot;,&quot;elbow&quot;:&quot;vertical&quot;,&quot;curved&quot;:0,&quot;rounded&quot;:0};" vertex="1" parent="j2GQXVyDe1wogXifcndS-18">
          <mxGeometry x="60" y="140" width="10" height="27.5" as="geometry" />
        </mxCell>
        <mxCell id="j2GQXVyDe1wogXifcndS-22" value="发MQ" style="html=1;verticalAlign=bottom;endArrow=block;edgeStyle=elbowEdgeStyle;elbow=vertical;curved=0;rounded=0;" edge="1" target="j2GQXVyDe1wogXifcndS-21" parent="1" source="l9k2WkmSfrs8s9Qc9CKJ-2">
          <mxGeometry relative="1" as="geometry">
            <mxPoint x="270" y="160" as="sourcePoint" />
            <Array as="points">
              <mxPoint x="350" y="160" />
            </Array>
          </mxGeometry>
        </mxCell>
        <mxCell id="j2GQXVyDe1wogXifcndS-23" value="return" style="html=1;verticalAlign=bottom;endArrow=open;dashed=1;endSize=8;edgeStyle=elbowEdgeStyle;elbow=vertical;curved=0;rounded=0;" edge="1" source="j2GQXVyDe1wogXifcndS-21" parent="1" target="l9k2WkmSfrs8s9Qc9CKJ-1">
          <mxGeometry relative="1" as="geometry">
            <mxPoint x="270" y="275" as="targetPoint" />
            <Array as="points">
              <mxPoint x="380" y="180" />
              <mxPoint x="370" y="190" />
              <mxPoint x="350" y="210" />
              <mxPoint x="410" y="230" />
            </Array>
          </mxGeometry>
        </mxCell>
        <mxCell id="j2GQXVyDe1wogXifcndS-24" value="return" style="html=1;verticalAlign=bottom;endArrow=open;dashed=1;endSize=8;edgeStyle=elbowEdgeStyle;elbow=vertical;curved=0;rounded=0;" edge="1" parent="1" target="j2GQXVyDe1wogXifcndS-18">
          <mxGeometry relative="1" as="geometry">
            <mxPoint x="270" y="190" as="targetPoint" />
            <mxPoint x="600" y="390" as="sourcePoint" />
            <Array as="points">
              <mxPoint x="570" y="390" />
              <mxPoint x="550" y="330" />
              <mxPoint x="560" y="340" />
              <mxPoint x="580" y="410" />
              <mxPoint x="380" y="200" />
              <mxPoint x="360" y="220" />
              <mxPoint x="420" y="240" />
            </Array>
          </mxGeometry>
        </mxCell>
      </root>
    </mxGraphModel>
  </diagram>
</mxfile>
